<svg id="Laag_1" data-name="Laag 1" xmlns="http://www.w3.org/2000/svg" viewBox="0 0 809.43 303.37"><defs><style>.cls-1{fill:#5ef;}</style></defs><path class="cls-1" d="M894.87,505.81c-.28,9.07-2.26,18.11-3.81,27.1-2,11.83-6.08,23.08-11.06,34A122.11,122.11,0,0,1,863,594a119.89,119.89,0,0,1-35.19,29c-8.82,4.83-18,9-27.86,11.2-10.4,2.34-20.8,4.87-31.33,6.42-7.24,1.08-14.71.82-22.08.84q-47.13.12-94.26.05c-.87,0-1.74-.08-2.77-.12v-66h3.69q45.78,0,91.56,0c11.31,0,22.53-1.21,33.2-4.94,17.93-6.25,30.86-18,37.89-36A98.54,98.54,0,0,0,822.48,505c.57-8.17,1.4-16.29,0-24.44a2.73,2.73,0,0,1,.73-2.17c6.49-5.81,13.06-11.53,19.57-17.31,2.61-2.3,5.14-4.69,7.69-7q14.82-13.63,29.63-27.25c1.16-1.07,2.48-1.95,3.86-3a165.9,165.9,0,0,1,9.41,35.92C895.74,475,895.36,490.44,894.87,505.81Z" transform="translate(-649.55 -339.56)"/><path class="cls-1" d="M831.78,360.11c-2.7,2.71-4.72,4.86-6.88,6.86-4.22,3.92-8.57,7.7-12.77,11.64-5.31,5-10.5,10.08-15.79,15.07-5.58,5.24-11.16,10.48-16.89,15.55-.76.67-2.46.6-3.65.41-5.11-.84-10.17-2.51-15.29-2.67-16.35-.53-32.73-.52-49.09-.71a10.6,10.6,0,0,0-1.29.19v19.91c0,10.89,0,21.79,0,32.68,0,1.82-.16,3-2.52,3-19-.06-38,0-57-.05a6.09,6.09,0,0,1-1-.21V339.71c1,0,2-.15,2.94-.15,36.31,0,72.62-.11,108.94.25a119.47,119.47,0,0,1,24,3.12,200.9,200.9,0,0,1,25.86,7.57C818.12,353,824.51,356.64,831.78,360.11Z" transform="translate(-649.55 -339.56)"/><path class="cls-1" d="M892.71,383.19c-4-4.18-8-8.34-11.94-12.57s-7.54-8.32-11.35-12.46c-3-3.3-6.76-2.88-9.07-.41-2,2.09-4.25,3.88-6.35,5.84q-11.43,10.74-22.82,21.51-9.57,9-19.17,17.95c-7.36,6.82-14.77,13.59-22.15,20.39q-16.23,15-32.44,30.05c-9,8.37-17.77,17.05-27.07,25.1-12,10.37-19.37,23.77-26.22,37.63-5.43,11-11,21.86-20.12,30.45-1.35,1.27-2.19,3.07-3.26,4.62.53,5.15,5.33,8.19,9.47,5.86,1.7-.95,3-2.57,4.6-3.74,11.46-8.5,24.29-14.41,37.3-20.09,7-3.07,14-6.38,20.25-10.74,6.45-4.53,12-10.4,17.8-15.79,9.5-8.78,18.91-17.66,28.36-26.49,5.74-5.36,11.51-10.69,17.25-16.05q14.29-13.35,28.55-26.71c5.45-5.08,11-10.11,16.4-15.21,10.66-10,21.21-20.15,32-30C896.26,389,895.52,386.13,892.71,383.19Zm-24.38,4.12c-14.43,12.8-28.28,26.26-42.37,39.44q-17.65,16.51-35.32,33Q778,471.55,765.23,483.28q-11,10.23-22.09,20.44c-3.56,3.27-3.63,3.74-.19,7.22,1.56,1.58,2.1,2.72-.51,3.9-7.61,3.4-15.15,7-22.73,10.46a6.07,6.07,0,0,1-1.14.31c-2.91,0-4-2.06-2.5-5,5.69-11.25,11.25-22.4,21.16-31,14.22-12.37,27.64-25.67,41.43-38.53q16.37-15.27,32.8-30.48,22.26-20.7,44.51-41.44c1.45-1.35,2.78-3,4.48-3.88,1.47-.75,3.79-1.39,5-.75C871.07,377.41,874,382.27,868.33,387.31Z" transform="translate(-649.55 -339.56)"/><path class="cls-1" d="M940.56,638.26V422.78h46.36V638.26Z" transform="translate(-649.55 -339.56)"/><path class="cls-1" d="M1135.62,642.92a112.18,112.18,0,0,1-39.8-7.29,123.29,123.29,0,0,1-35.57-20.7q-16.18-13.41-26-35.28T1024.53,531q0-27.4,9.77-49.57t26-35.57a121.07,121.07,0,0,1,35.57-20.56,114.28,114.28,0,0,1,39.8-7.14,115.5,115.5,0,0,1,39.94,7.14,124.45,124.45,0,0,1,36,20.56q16.47,13.41,26.54,35.57T1248.17,531q0,26.82-9.92,48.69T1212,614.93a124.35,124.35,0,0,1-36,20.7A115.37,115.37,0,0,1,1135.62,642.92Zm-44.32-62.39A62.6,62.6,0,0,0,1135.62,598q25.65,0,45.19-17.49T1200.35,531q0-33.24-19.39-50.74a65.56,65.56,0,0,0-45.34-17.49q-25.95,0-44.47,17.35T1072.64,531Q1072.64,563,1091.3,580.53Z" transform="translate(-649.55 -339.56)"/><path class="cls-1" d="M1412.32,422.78H1459v219h-6.42l-119-121.59V638.26h-46.36V419H1294l118.37,121.3Z" transform="translate(-649.55 -339.56)"/></svg>